<svg width="94" height="94" viewBox="0 0 94 94" fill="none" xmlns="http://www.w3.org/2000/svg">
<path d="M47 33.7812C39.7121 33.7812 33.7812 39.7121 33.7812 47C33.7812 54.2879 39.7121 60.2188 47 60.2188C54.2879 60.2188 60.2188 54.2879 60.2188 47C60.2188 39.7121 54.2879 33.7812 47 33.7812ZM47 57.2812C41.3306 57.2812 36.7188 52.6694 36.7188 47C36.7188 41.3306 41.3306 36.7188 47 36.7188C52.6694 36.7188 57.2812 41.3306 57.2812 47C57.2812 52.6694 52.6694 57.2812 47 57.2812Z" fill="#FCC38E"/>
<path d="M79.3125 24.9688H91.0625C91.8733 24.9688 92.5312 24.3108 92.5312 23.5V11.75C92.5312 10.9392 91.8733 10.2812 91.0625 10.2812H79.3125C78.5017 10.2812 77.8438 10.9392 77.8438 11.75V16.1562H73.4375C72.6267 16.1562 71.9688 16.8142 71.9688 17.625V45.5312H70.5V44.0625C70.5 43.3267 69.9551 42.7039 69.2251 42.607L65.4578 42.1047C65.0245 40.4655 64.3709 38.8954 63.5073 37.4164L65.822 34.3908C66.2685 33.8062 66.2142 32.9808 65.6943 32.4608L61.5392 28.3057C61.0192 27.7843 60.1923 27.73 59.6092 28.178L56.5836 30.4927C55.1046 29.6306 53.5345 28.977 51.8953 28.5422L51.393 24.7749C51.2961 24.0449 50.6733 23.5 49.9375 23.5H44.0625C43.3267 23.5 42.7039 24.0449 42.607 24.7749L42.1047 28.5422C40.4655 28.9755 38.8954 29.6291 37.4164 30.4927L34.3908 28.178C33.8062 27.7315 32.9808 27.7858 32.4608 28.3057L28.3057 32.4608C27.7858 32.9808 27.73 33.8077 28.178 34.3908L30.4927 37.4164C29.6306 38.8954 28.977 40.4655 28.5422 42.1047L24.7749 42.607C24.0449 42.7039 23.5 43.3267 23.5 44.0625V45.5312H22.0312V17.625C22.0312 16.8142 21.3732 16.1562 20.5625 16.1562H16.1562V11.75C16.1562 10.9392 15.4983 10.2812 14.6875 10.2812H2.9375C2.12675 10.2812 1.46875 10.9392 1.46875 11.75V23.5C1.46875 24.3108 2.12675 24.9688 2.9375 24.9688H14.6875C15.4983 24.9688 16.1562 24.3108 16.1562 23.5V19.0938H19.0938V45.5312H16.1562V41.125C16.1562 40.3143 15.4983 39.6562 14.6875 39.6562H2.9375C2.12675 39.6562 1.46875 40.3143 1.46875 41.125V52.875C1.46875 53.6857 2.12675 54.3438 2.9375 54.3438H14.6875C15.4983 54.3438 16.1562 53.6857 16.1562 52.875V48.4688H19.0938V74.9062H16.1562V70.5C16.1562 69.6893 15.4983 69.0312 14.6875 69.0312H2.9375C2.12675 69.0312 1.46875 69.6893 1.46875 70.5V82.25C1.46875 83.0608 2.12675 83.7188 2.9375 83.7188H14.6875C15.4983 83.7188 16.1562 83.0608 16.1562 82.25V77.8438H20.5625C21.3732 77.8438 22.0312 77.1858 22.0312 76.375V48.4688H23.5V49.9375C23.5 50.6733 24.0449 51.2961 24.7749 51.393L28.5422 51.8953C28.9755 53.5345 29.6291 55.1046 30.4927 56.5836L28.178 59.6092C27.7315 60.1938 27.7858 61.0192 28.3057 61.5392L32.4608 65.6943C32.9808 66.2142 33.8048 66.2685 34.3908 65.822L37.4164 63.5073C38.8954 64.3694 40.4655 65.023 42.1047 65.4578L42.607 69.2251C42.7039 69.9551 43.3267 70.5 44.0625 70.5H49.9375C50.6733 70.5 51.2961 69.9551 51.393 69.2251L51.8953 65.4578C53.5345 65.0245 55.1046 64.3709 56.5836 63.5073L59.6092 65.822C60.1938 66.27 61.0207 66.2157 61.5392 65.6943L65.6943 61.5392C66.2142 61.0192 66.27 60.1923 65.822 59.6092L63.5073 56.5836C64.3694 55.1046 65.023 53.5345 65.4578 51.8953L69.2251 51.393C69.9551 51.2961 70.5 50.6733 70.5 49.9375V48.4688H71.9688V76.375C71.9688 77.1858 72.6267 77.8438 73.4375 77.8438H77.8438V82.25C77.8438 83.0608 78.5017 83.7188 79.3125 83.7188H91.0625C91.8733 83.7188 92.5312 83.0608 92.5312 82.25V70.5C92.5312 69.6893 91.8733 69.0312 91.0625 69.0312H79.3125C78.5017 69.0312 77.8438 69.6893 77.8438 70.5V74.9062H74.9062V48.4688H77.8438V52.875C77.8438 53.6857 78.5017 54.3438 79.3125 54.3438H91.0625C91.8733 54.3438 92.5312 53.6857 92.5312 52.875V41.125C92.5312 40.3143 91.8733 39.6562 91.0625 39.6562H79.3125C78.5017 39.6562 77.8438 40.3143 77.8438 41.125V45.5312H74.9062V19.0938H77.8438V23.5C77.8438 24.3108 78.5017 24.9688 79.3125 24.9688ZM80.7812 13.2188H89.5938V22.0312H80.7812V13.2188ZM13.2188 22.0312H4.40625V13.2188H13.2188V22.0312ZM13.2188 51.4062H4.40625V42.5938H13.2188V51.4062ZM13.2188 80.7812H4.40625V71.9688H13.2188V80.7812ZM67.5625 48.6523L64.0669 49.1179C63.4485 49.2002 62.9492 49.6658 62.8228 50.2782C62.4145 52.264 61.6317 54.144 60.4993 55.8639C60.1556 56.3853 60.1806 57.0668 60.5595 57.5633L62.7083 60.373L60.373 62.7083L57.5633 60.5595C57.0668 60.1806 56.3838 60.1556 55.8639 60.4993C54.144 61.6317 52.264 62.4145 50.2782 62.8228C49.6658 62.9492 49.2017 63.4485 49.1179 64.0669L48.6523 67.5625H45.3491L44.8835 64.0669C44.8013 63.4485 44.3357 62.9492 43.7232 62.8228C41.7375 62.4145 39.8575 61.6317 38.1376 60.4993C37.6176 60.1571 36.9361 60.1806 36.4382 60.5595L33.6285 62.7083L31.2932 60.373L33.442 57.5633C33.8209 57.0668 33.8459 56.3853 33.5022 55.8639C32.3698 54.144 31.5869 52.264 31.1786 50.2782C31.0523 49.6658 30.5529 49.2017 29.9346 49.1179L26.4375 48.6523V45.3491L29.9331 44.8835C30.5515 44.8013 31.0508 44.3357 31.1772 43.7232C31.5855 41.7375 32.3683 39.8575 33.5007 38.1376C33.8444 37.6162 33.8194 36.9347 33.4405 36.4382L31.2917 33.6285L33.627 31.2932L36.4368 33.442C36.9317 33.8209 37.6147 33.8444 38.1361 33.5022C39.856 32.3698 41.736 31.5869 43.7217 31.1786C44.3342 31.0523 44.7983 30.5529 44.8821 29.9346L45.3477 26.4375H48.6509L49.1165 29.9331C49.1987 30.5515 49.6643 31.0508 50.2768 31.1772C52.2625 31.5855 54.1425 32.3683 55.8624 33.5007C56.3853 33.8444 57.0668 33.8209 57.5618 33.4405L60.3715 31.2917L62.7068 33.627L60.558 36.4368C60.1791 36.9332 60.1541 37.6147 60.4978 38.1361C61.6302 39.856 62.4131 41.736 62.8214 43.7217C62.9477 44.3342 63.4471 44.7983 64.0654 44.8821L67.5625 45.3477V48.6523ZM80.7812 71.9688H89.5938V80.7812H80.7812V71.9688ZM80.7812 42.5938H89.5938V51.4062H80.7812V42.5938Z" fill="#FCC38E"/>
</svg>
