<svg width="85" height="85" viewBox="0 0 85 85" fill="none" xmlns="http://www.w3.org/2000/svg">
<path d="M70.8334 10.625H14.1667C10.2602 10.625 7.08337 13.8019 7.08337 17.7083V67.2917C7.08337 71.1981 10.2602 74.375 14.1667 74.375H70.8334C74.7398 74.375 77.9167 71.1981 77.9167 67.2917V17.7083C77.9167 13.8019 74.7398 10.625 70.8334 10.625ZM14.1667 67.2917V24.7917H70.8334L70.8405 67.2917H14.1667Z" fill="#FCC38E"/>
<path d="M32.9127 32.9126L19.7837 46.0416L32.9127 59.1705L37.9206 54.1626L29.7995 46.0416L37.9206 37.9205L32.9127 32.9126ZM52.0872 32.9126L47.0793 37.9205L55.2004 46.0416L47.0793 54.1626L52.0872 59.1705L65.2162 46.0416L52.0872 32.9126Z" fill="#FCC38E"/>
</svg>
