<svg width="37" height="37" viewBox="0 0 37 37" fill="none" xmlns="http://www.w3.org/2000/svg">
<path fill-rule="evenodd" clip-rule="evenodd" d="M0.625 3.61175C0.625 2.81962 0.939675 2.05993 1.4998 1.4998C2.05992 0.939678 2.81962 0.625004 3.61175 0.625004H33.385C33.7776 0.624363 34.1664 0.701156 34.5292 0.850987C34.8921 1.00082 35.2218 1.22074 35.4995 1.49818C35.7773 1.77561 35.9975 2.10509 36.1478 2.46777C36.298 2.83045 36.3752 3.21919 36.375 3.61175V33.385C36.3754 33.7776 36.2984 34.1665 36.1484 34.5294C35.9984 34.8922 35.7783 35.2219 35.5008 35.4996C35.2232 35.7773 34.8936 35.9976 34.5309 36.1478C34.1681 36.298 33.7793 36.3752 33.3866 36.375H3.61175C3.21939 36.375 2.83087 36.2977 2.4684 36.1475C2.10592 35.9973 1.77659 35.7771 1.49922 35.4996C1.22186 35.2221 1.00189 34.8927 0.851887 34.5301C0.701884 34.1675 0.624787 33.779 0.625 33.3866V3.61175ZM14.7755 14.2555H19.6164V16.6865C20.3151 15.289 22.1026 14.0313 24.7887 14.0313C29.9384 14.0313 31.1588 16.8149 31.1588 21.9223V31.383H25.9474V23.0858C25.9474 20.177 25.2486 18.5358 23.4741 18.5358C21.0122 18.5358 19.9885 20.3054 19.9885 23.0858V31.383H14.7755V14.2555ZM5.838 31.1604H11.051V14.0313H5.838V31.1588V31.1604ZM11.7969 8.4445C11.8067 8.89085 11.7273 9.33466 11.5633 9.74989C11.3992 10.1651 11.1539 10.5434 10.8418 10.8626C10.5296 11.1817 10.1568 11.4353 9.74524 11.6084C9.33372 11.7815 8.89176 11.8707 8.44531 11.8707C7.99886 11.8707 7.55691 11.7815 7.14539 11.6084C6.73387 11.4353 6.36107 11.1817 6.04887 10.8626C5.73668 10.5434 5.49138 10.1651 5.32736 9.74989C5.16335 9.33466 5.08392 8.89085 5.09375 8.4445C5.11304 7.56839 5.47463 6.73466 6.10106 6.12187C6.7275 5.50907 7.56899 5.16593 8.44531 5.16593C9.32164 5.16593 10.1631 5.50907 10.7896 6.12187C11.416 6.73466 11.7776 7.56839 11.7969 8.4445Z" fill="white"/>
</svg>
