<svg width="61" height="67" viewBox="0 0 61 67" fill="none" xmlns="http://www.w3.org/2000/svg">
<path d="M3.12492 0.041626H51.7916C52.5983 0.041626 53.372 0.362086 53.9424 0.932509C54.5128 1.50293 54.8333 2.27659 54.8333 3.08329V15.25C54.8333 16.0567 54.5128 16.8303 53.9424 17.4007C53.372 17.9712 52.5983 18.2916 51.7916 18.2916H3.12492C2.31822 18.2916 1.54456 17.9712 0.974135 17.4007C0.403712 16.8303 0.083252 16.0567 0.083252 15.25V3.08329C0.083252 2.27659 0.403712 1.50293 0.974135 0.932509C1.54456 0.362086 2.31822 0.041626 3.12492 0.041626ZM3.12492 24.375H51.7916C52.5983 24.375 53.372 24.6954 53.9424 25.2658C54.5128 25.8363 54.8333 26.6099 54.8333 27.4166V29.4545L47.2291 26.0783L27.4583 34.8383V42.625H3.12492C2.31822 42.625 1.54456 42.3045 0.974135 41.7341C0.403712 41.1637 0.083252 40.39 0.083252 39.5833V27.4166C0.083252 26.6099 0.403712 25.8363 0.974135 25.2658C1.54456 24.6954 2.31822 24.375 3.12492 24.375ZM3.12492 48.7083H27.4583C27.6408 55.552 30.4999 62.0916 34.9408 66.9583H3.12492C2.31822 66.9583 1.54456 66.6378 0.974135 66.0674C0.403712 65.497 0.083252 64.7233 0.083252 63.9166V51.75C0.083252 50.9433 0.403712 50.1696 0.974135 49.5992C1.54456 49.0287 2.31822 48.7083 3.12492 48.7083ZM18.3333 12.2083H21.3749V6.12496H18.3333V12.2083ZM18.3333 36.5416H21.3749V30.4583H18.3333V36.5416ZM18.3333 60.875H21.3749V54.7916H18.3333V60.875ZM6.16659 6.12496V12.2083H12.2499V6.12496H6.16659ZM6.16659 30.4583V36.5416H12.2499V30.4583H6.16659ZM6.16659 54.7916V60.875H12.2499V54.7916H6.16659ZM47.2291 33.5L60.9166 39.5833V48.7083C60.9166 57.1641 55.0766 65.042 47.2291 66.9583C39.3816 65.042 33.5416 57.1641 33.5416 48.7083V39.5833L47.2291 33.5ZM47.2291 39.4008L39.6249 42.8075V50.8983C39.6249 55.5825 42.8795 59.9625 47.2291 61.0575V39.4008Z" fill="#FCC38E"/>
</svg>
